<svg xmlns="http://www.w3.org/2000/svg" viewBox="0 0 1024 1024" width="256" height="256"><rect width="1024" height="1024" rx="184" fill="#eef2f0"/><path d="M512 220c40 0 76 8 110 24l50-46 82 82-46 50c16 34 24 70 24 110s-8 76-24 110l46 50-82 82-50-46c-34 16-70 24-110 24s-76-8-110-24l-50 46-82-82 46-50c-16-34-24-70-24-110s8-76 24-110l-46-50 82-82 50 46c34-16 70-24 110-24z" fill="#64748b"/><circle cx="512" cy="440" r="98" fill="#fff"/><circle cx="512" cy="440" r="46" fill="#1a7f72"/><rect x="270" y="740" width="484" height="64" rx="32" fill="#1a7f72"/></svg>
