<svg xmlns="http://www.w3.org/2000/svg" viewBox="0 0 1024 1024" width="256" height="256"><rect width="1024" height="1024" rx="184" fill="#e0f2fe"/><path d="M512 120 850 316v392L512 904 174 708V316z" fill="#0f5fa8"/><path d="M564 622c-30 34-76 54-128 54-98 0-172-74-172-164s74-164 172-164c52 0 98 20 128 54l-54 58c-16-20-42-32-72-32-50 0-84 36-84 84s34 84 84 84c30 0 56-12 72-32z" fill="#fff"/><path d="M640 430v62h62v56h-62v62h-56v-62h-62v-56h62v-62zm154 0v62h62v56h-62v62h-56v-62h-62v-56h62v-62z" fill="#bde7ff"/></svg>
