<svg xmlns="http://www.w3.org/2000/svg" viewBox="0 0 1024 1024" width="256" height="256"><rect width="1024" height="1024" rx="184" fill="#eff6ff"/><path d="M512 132c-150 0-220 58-220 154v94h236v52H256c-88 0-148 66-148 166s58 168 148 168h86V650c0-90 72-154 160-154h218c80 0 144-64 144-144v-66c0-96-78-154-220-154z" fill="#3776ab"/><path d="M512 892c150 0 220-58 220-154v-94H496v-52h272c88 0 148-66 148-166s-58-168-148-168h-86v116c0 90-72 154-160 154H304c-80 0-144 64-144 144v66c0 96 78 154 220 154z" fill="#ffd43b"/><circle cx="408" cy="252" r="34" fill="#fff"/><circle cx="616" cy="772" r="34" fill="#fff"/></svg>
