<svg viewBox="0 0 1024 1024" xmlns="http://www.w3.org/2000/svg">
  <path d="M512.325 513.007m-448.112 0a448.112 448.112 0 1 0 896.224 0 448.112 448.112 0 1 0-896.224 0Z" fill="#E0995E"/>
  <path d="M701.372 529.349h-70.018V426.648c0-65.628-53.395-119.03-119.03-119.03s-119.03 53.402-119.03 119.03V529.35h-70.018V426.648c0-104.247 84.807-189.047 189.047-189.047S701.37 322.402 701.37 426.648v102.701z" fill="#231F20"/>
  <path d="M701.372 501.342h-70.018V398.641c0-65.628-53.395-119.03-119.03-119.03s-119.03 53.402-119.03 119.03v102.702h-70.018V398.641c0-104.247 84.807-189.047 189.047-189.047S701.37 294.395 701.37 398.641v102.701z" fill="#FFFFFF"/>
  <path d="M722.377 442.99H302.272c-23.202 0-42.011 18.809-42.011 42.011v266.067c0 23.202 18.809 42.011 42.011 42.011h420.105c23.202 0 42.011-18.809 42.011-42.011V485c0-23.202-18.809-42.01-42.011-42.01z" fill="#231F20"/>
  <path d="M722.377 414.983H302.272c-23.202 0-42.011 18.809-42.011 42.011V723.06c0 23.202 18.809 42.011 42.011 42.011h420.105c23.202 0 42.011-18.809 42.011-42.011V456.993c0-23.202-18.809-42.01-42.011-42.01z" fill="#FFFFFF"/>
  <path d="M540.332 617.266v35.776c0 15.468-12.539 28.007-28.007 28.007-15.468 0-28.007-12.539-28.007-28.007v-35.776c-16.673-9.703-28.007-27.564-28.007-48.245 0-30.936 25.078-56.014 56.014-56.014s56.014 25.078 56.014 56.014c0 20.681-11.335 38.541-28.007 48.245z" fill="#4F5D73"/>
</svg>
