<svg
  width="256"
  height="256"
  viewBox="0 0 1024 1024"
  xmlns="http://www.w3.org/2000/svg"
  fill="none"
>
  <!-- bell body -->
  <path
    d="M512 170
       C382 170 288 264 288 392
       V560
       C288 620 266 677 226 722
       L186 768
       C176 780 172 795 178 808
       C184 821 197 830 212 830
       H812
       C827 830 840 821 846 808
       C852 795 848 780 838 768
       L798 722
       C758 677 736 620 736 560
       V392
       C736 264 642 170 512 170Z"
    fill="#FFC670"
  />

  <!-- bell highlight -->
  <path
    d="M512 170
       C402 170 320 252 320 366
       V520
       C320 580 300 635 264 676
       L240 704
       H738
       L714 676
       C678 635 658 580 658 520
       V366
       C658 252 594 170 512 170Z"
    fill="#FFE88A"
  />

  <!-- bell side shadow -->
  <path
    d="M736 392
       V560
       C736 620 758 677 798 722
       L838 768
       C848 780 852 795 846 808
       C840 821 827 830 812 830
       H650
       C710 800 748 737 748 668
       C748 632 737 597 716 568
       L662 494
       C642 466 632 433 632 398
       C632 313 582 234 512 196
       C625 196 736 282 736 392Z"
    fill="#FF9A42"
  />

  <!-- clapper -->
  <circle cx="512" cy="742" r="78" fill="#FFC670" />

  <!-- top handle -->
  <path
    d="M448 150
       C448 115 476 88 512 88
       C548 88 576 115 576 150
       V184
       H448
       V150Z"
    fill="#FFC670"
  />

  <!-- outline -->
  <path
    d="M512 170
       C382 170 288 264 288 392
       V560
       C288 620 266 677 226 722
       L186 768
       C176 780 172 795 178 808
       C184 821 197 830 212 830
       H812
       C827 830 840 821 846 808
       C852 795 848 780 838 768
       L798 722
       C758 677 736 620 736 560
       V392
       C736 264 642 170 512 170Z"
    stroke="#3D3D63"
    stroke-width="34"
    stroke-linejoin="round"
  />

  <path
    d="M448 150
       C448 115 476 88 512 88
       C548 88 576 115 576 150
       V184
       H448
       V150Z"
    stroke="#3D3D63"
    stroke-width="34"
    stroke-linejoin="round"
  />

  <path
    d="M320 830
       C320 936 406 968 512 968
       C618 968 704 936 704 830"
    stroke="#3D3D63"
    stroke-width="34"
    stroke-linecap="round"
  />

  <circle
    cx="512"
    cy="742"
    r="78"
    stroke="#3D3D63"
    stroke-width="34"
    fill="none"
  />
</svg>
