<svg t="1778921004454" class="icon" viewBox="0 0 1024 1024" version="1.1" xmlns="http://www.w3.org/2000/svg" p-id="10802" width="256" height="256"><path d="M896 938.666667H128c-23.466667 0-42.666667-19.2-42.666667-42.666667V213.333333c0-23.466667 19.2-42.666667 42.666667-42.666666h768c23.466667 0 42.666667 19.2 42.666667 42.666666v682.666667c0 23.466667-19.2 42.666667-42.666667 42.666667z" fill="#BAE7FF" p-id="10803"></path><path d="M938.666667 341.333333H85.333333v-128c0-23.466667 19.2-42.666667 42.666667-42.666666h768c23.466667 0 42.666667 19.2 42.666667 42.666666v128z" fill="#185ABD" p-id="10804"></path><path d="M266.666667 256c-23.466667 0-42.666667-19.2-42.666667-42.666667V128c0-23.466667 19.2-42.666667 42.666667-42.666667s42.666667 19.2 42.666666 42.666667v85.333333c0 23.466667-19.2 42.666667-42.666666 42.666667zM746.666667 256c-23.466667 0-42.666667-19.2-42.666667-42.666667V128c0-23.466667 19.2-42.666667 42.666667-42.666667s42.666667 19.2 42.666666 42.666667v85.333333c0 23.466667-19.2 42.666667-42.666666 42.666667z" fill="#50D9FF" p-id="10805"></path><path d="M213.333333 597.333333h85.333334v85.333334h-85.333334z" fill="#2B7CD3" p-id="10806"></path><path d="M213.333333 746.666667h85.333334v85.333333h-85.333334z" fill="#41A5EE" p-id="10807"></path><path d="M384 597.333333h85.333333v85.333334h-85.333333z" fill="#2B7CD3" p-id="10808"></path><path d="M384 746.666667h85.333333v85.333333h-85.333333z" fill="#41A5EE" p-id="10809"></path><path d="M554.666667 597.333333h85.333333v85.333334h-85.333333z" fill="#2B7CD3" p-id="10810"></path><path d="M554.666667 746.666667h85.333333v85.333333h-85.333333z" fill="#41A5EE" p-id="10811"></path><path d="M725.333333 597.333333h85.333334v85.333334h-85.333334z" fill="#2B7CD3" p-id="10812"></path><path d="M384 448h85.333333v85.333333h-85.333333zM554.666667 448h85.333333v85.333333h-85.333333zM725.333333 448h85.333334v85.333333h-85.333334z" fill="#185ABD" p-id="10813"></path></svg>
