<?xml version="1.0" standalone="no"?><!DOCTYPE svg PUBLIC "-//W3C//DTD SVG 1.1//EN" "http://www.w3.org/Graphics/SVG/1.1/DTD/svg11.dtd"><svg t="1778492279043" class="icon" viewBox="0 0 1024 1024" version="1.1" xmlns="http://www.w3.org/2000/svg" p-id="7008" xmlns:xlink="http://www.w3.org/1999/xlink" width="256" height="256"><path d="M512 256c-141.4 0-256 114.6-256 256s114.6 256 256 256 256-114.6 256-256-114.6-256-256-256z m0 298.7c-23.6 0-42.7-19.1-42.7-42.7s19.1-42.7 42.7-42.7 42.7 19.1 42.7 42.7-19.1 42.7-42.7 42.7z" fill="#F9DB88" p-id="7009"></path><path d="M512 85.3c-235.6 0-426.7 191-426.7 426.7s191 426.7 426.7 426.7 426.7-191 426.7-426.7S747.6 85.3 512 85.3z m42.7 765.3v-96.8c0-23.6-19.1-42.7-42.7-42.7s-42.7 19.1-42.7 42.7v96.8c-154.1-19.3-276.6-141.8-295.9-295.9h96.8c23.6 0 42.7-19.1 42.7-42.7s-19.1-42.7-42.7-42.7h-96.8c19.3-154.1 141.8-276.6 295.9-295.9v96.8c0 23.6 19.1 42.7 42.7 42.7s42.7-19.1 42.7-42.7v-96.8c154.1 19.3 276.6 141.8 295.9 295.9h-96.8c-23.6 0-42.7 19.1-42.7 42.7s19.1 42.7 42.7 42.7h96.8c-19.4 154.1-141.8 276.5-295.9 295.9z" fill="#009F72" p-id="7010"></path></svg>